# xmcd
#
# Track frame offsets:
#   150
#   13812
#   28111
#   43605
#   55602
#   71378
#   85493
#   101428
#   115208
#   129078
#   146803
#   161605
#   174613
#   188255
#   202522
#
# Disc length: 2856 seconds
#
# Revision: 0
# Processed by: cddbd v1.5.2PL0 Copyright (c) Steve Scherf et al.
# Submitted via: uFREEDB ActiveX Control 1.5
#
DISCID=bb0b260f
DTITLE=João Gustavo and MuriloDois estranhos - dialindo
DYEAR=1900
DGENRE=Country
TTITLE0=Dia lindo
TTITLE1=Fecha o porta mala
TTITLE2=Embaçado
TTITLE3=Fala a verdade
TTITLE4=Destino ou estinto
TTITLE5=Não faz nem um mês
TTITLE6=Eu duvido
TTITLE7=Ta cabendo eu
TTITLE8=Dois estranhos
TTITLE9=Querendo te encontrar
TTITLE10=Saudade covarde
TTITLE11=Sonho louco
TTITLE12=Águas 
TTITLE13=Tá que tá
TTITLE14=Erro a vida enteira
EXTD=
EXTT0=
EXTT1=
EXTT2=
EXTT3=
EXTT4=
EXTT5=
EXTT6=
EXTT7=
EXTT8=
EXTT9=
EXTT10=
EXTT11=
EXTT12=
EXTT13=
EXTT14=
PLAYORDER=
